HIERARCHY
ROOT hips
{
	OFFSET 0.000000 104.274902 0.000000
	CHANNELS 6 Xposition Yposition Zposition Xrotation Yrotation Zrotation
	JOINT spine
	{
		OFFSET 0.000000 10.181549 0.131524
		CHANNELS 6 Xposition Yposition Zposition Xrotation Yrotation Zrotation
		JOINT chest
		{
			OFFSET 0.000000 9.893990 -1.470706
			CHANNELS 3 Xrotation Yrotation Zrotation
			JOINT upperChest
			{
				OFFSET 0.000000 9.220787 -1.370637
				CHANNELS 3 Xrotation Yrotation Zrotation
				JOINT neck
				{
					OFFSET 0.000000 16.740372 -2.049022
					CHANNELS 6 Xposition Yposition Zposition Xrotation Yrotation Zrotation
					JOINT head
					{
						OFFSET 0.000000 9.617859 1.684976
						CHANNELS 6 Xposition Yposition Zposition Xrotation Yrotation Zrotation
						JOINT headEnd
						{
							OFFSET 0.000000 22.037384 7.501072
							CHANNELS 6 Xposition Yposition Zposition Xrotation Yrotation Zrotation
							End Site
							{
								OFFSET 0.000000 23.106567 -2.828246
							}
						}
					}
				}
				JOINT rightShoulder
				{
					OFFSET -4.570000 11.014877 -2.160840
					CHANNELS 6 Xposition Yposition Zposition Xrotation Yrotation Zrotation
					JOINT rightUpperArm
					{
						OFFSET -10.592867 -0.524796 -2.232105
						CHANNELS 3 Xrotation Yrotation Zrotation
						JOINT rightLowerArm
						{
							OFFSET -27.841497 0.000000 -0.000002
							CHANNELS 3 Xrotation Yrotation Zrotation
							JOINT rightHand
							{
								OFFSET -28.328812 0.000000 -0.000001
								CHANNELS 3 Xrotation Yrotation Zrotation
								JOINT rightThumbProximal
								{
									OFFSET -2.464798 -1.573990 2.681911
									CHANNELS 6 Xposition Yposition Zposition Xrotation Yrotation Zrotation
									JOINT rightThumbIntermediate
									{
										OFFSET -3.244781 -1.873383 1.873376
										CHANNELS 3 Xrotation Yrotation Zrotation
										JOINT rightThumbDistal
										{
											OFFSET -2.646263 -1.527817 1.527818
											CHANNELS 6 Xposition Yposition Zposition Xrotation Yrotation Zrotation
											JOINT rightHandThumb4
											{
												OFFSET -1.994591 -1.151581 1.151575
												CHANNELS 6 Xposition Yposition Zposition Xrotation Yrotation Zrotation
												End Site
												{
													OFFSET -1.860176 -1.142715 1.365483
												}
											}
										}
									}
								}
								JOINT rightIndexProximal
								{
									OFFSET -9.108299 -0.517883 2.259803
									CHANNELS 6 Xposition Yposition Zposition Xrotation Yrotation Zrotation
									JOINT rightIndexIntermediate
									{
										OFFSET -3.699997 0.000000 0.000000
										CHANNELS 3 Xrotation Yrotation Zrotation
										JOINT rightIndexDistal
										{
											OFFSET -2.850006 0.000000 0.000000
											CHANNELS 3 Xrotation Yrotation Zrotation
											JOINT rightHandIndex4
											{
												OFFSET -2.772194 0.000000 0.000000
												CHANNELS 3 Xrotation Yrotation Zrotation
												End Site
												{
													OFFSET -2.772202 0.000000 -0.000484
												}
											}
										}
									}
								}
								JOINT rightMiddleProximal
								{
									OFFSET -9.532501 0.000000 -0.000000
									CHANNELS 6 Xposition Yposition Zposition Xrotation Yrotation Zrotation
									JOINT rightMiddleIntermediate
									{
										OFFSET -3.699997 0.000000 0.000000
										CHANNELS 3 Xrotation Yrotation Zrotation
										JOINT rightMiddleDistal
										{
											OFFSET -2.949997 0.000000 0.000000
											CHANNELS 3 Xrotation Yrotation Zrotation
											JOINT rightHandMiddle4
											{
												OFFSET -2.946594 0.000000 0.000000
												CHANNELS 3 Xrotation Yrotation Zrotation
												End Site
												{
													OFFSET -2.946602 0.000000 -0.000982
												}
											}
										}
									}
								}
								JOINT rightRingProximal
								{
									OFFSET -9.103600 -0.043106 -1.865100
									CHANNELS 6 Xposition Yposition Zposition Xrotation Yrotation Zrotation
									JOINT rightRingIntermediate
									{
										OFFSET -3.379303 0.000000 0.000000
										CHANNELS 3 Xrotation Yrotation Zrotation
										JOINT rightRingDistal
										{
											OFFSET -2.889694 0.000000 0.000000
											CHANNELS 3 Xrotation Yrotation Zrotation
											JOINT rightHandRing4
											{
												OFFSET -2.638802 0.000000 0.000000
												CHANNELS 3 Xrotation Yrotation Zrotation
												End Site
												{
													OFFSET -2.638802 0.000000 0.004218
												}
											}
										}
									}
								}
								JOINT rightLittleProximal
								{
									OFFSET -8.076698 -0.486725 -3.806299
									CHANNELS 6 Xposition Yposition Zposition Xrotation Yrotation Zrotation
									JOINT rightLittleIntermediate
									{
										OFFSET -3.600006 0.000000 0.000000
										CHANNELS 3 Xrotation Yrotation Zrotation
										JOINT rightLittleDistal
										{
											OFFSET -2.099998 0.000000 0.000000
											CHANNELS 3 Xrotation Yrotation Zrotation
											JOINT rightHandPinky4
											{
												OFFSET -2.115791 0.000000 0.000000
												CHANNELS 3 Xrotation Yrotation Zrotation
												End Site
												{
													OFFSET -2.115799 0.000000 0.000174
												}
											}
										}
									}
								}
							}
						}
					}
				}
				JOINT leftShoulder
				{
					OFFSET 4.570400 11.014679 -2.160816
					CHANNELS 6 Xposition Yposition Zposition Xrotation Yrotation Zrotation
					JOINT leftUpperArm
					{
						OFFSET 10.592373 -0.524597 -2.232116
						CHANNELS 3 Xrotation Yrotation Zrotation
						JOINT leftLowerArm
						{
							OFFSET 27.841488 0.000000 0.000001
							CHANNELS 3 Xrotation Yrotation Zrotation
							JOINT leftHand
							{
								OFFSET 28.328808 0.000000 -0.000000
								CHANNELS 3 Xrotation Yrotation Zrotation
								JOINT leftThumbProximal
								{
									OFFSET 2.466103 -1.576202 2.681698
									CHANNELS 6 Xposition Yposition Zposition Xrotation Yrotation Zrotation
									JOINT leftThumbIntermediate
									{
										OFFSET 3.243317 -1.872528 1.872530
										CHANNELS 3 Xrotation Yrotation Zrotation
										JOINT leftThumbDistal
										{
											OFFSET 2.647881 -1.528763 1.528754
											CHANNELS 6 Xposition Yposition Zposition Xrotation Yrotation Zrotation
											JOINT leftHandThumb4
											{
												OFFSET 1.998924 -1.154083 1.154080
												CHANNELS 6 Xposition Yposition Zposition Xrotation Yrotation Zrotation
												End Site
												{
													OFFSET 1.884041 -1.149155 1.337651
												}
											}
										}
									}
								}
								JOINT leftIndexProximal
								{
									OFFSET 9.109299 -0.518005 2.259900
									CHANNELS 6 Xposition Yposition Zposition Xrotation Yrotation Zrotation
									JOINT leftIndexIntermediate
									{
										OFFSET 3.699997 0.000000 0.000000
										CHANNELS 3 Xrotation Yrotation Zrotation
										JOINT leftIndexDistal
										{
											OFFSET 2.850006 0.000000 0.000000
											CHANNELS 3 Xrotation Yrotation Zrotation
											JOINT leftHandIndex4
											{
												OFFSET 2.774895 0.000000 0.000000
												CHANNELS 3 Xrotation Yrotation Zrotation
												End Site
												{
													OFFSET 2.774902 0.000000 -0.000072
												}
											}
										}
									}
								}
								JOINT leftMiddleProximal
								{
									OFFSET 9.533401 0.000000 0.000000
									CHANNELS 6 Xposition Yposition Zposition Xrotation Yrotation Zrotation
									JOINT leftMiddleIntermediate
									{
										OFFSET 3.699997 0.000000 0.000000
										CHANNELS 3 Xrotation Yrotation Zrotation
										JOINT leftMiddleDistal
										{
											OFFSET 2.949997 0.000000 0.000000
											CHANNELS 3 Xrotation Yrotation Zrotation
											JOINT leftHandMiddle4
											{
												OFFSET 2.952896 0.000000 0.000000
												CHANNELS 3 Xrotation Yrotation Zrotation
												End Site
												{
													OFFSET 2.952904 0.000000 0.000165
												}
											}
										}
									}
								}
								JOINT leftRingProximal
								{
									OFFSET 9.104500 -0.042999 -1.865101
									CHANNELS 6 Xposition Yposition Zposition Xrotation Yrotation Zrotation
									JOINT leftRingIntermediate
									{
										OFFSET 3.149994 0.000000 0.000000
										CHANNELS 3 Xrotation Yrotation Zrotation
										JOINT leftRingDistal
										{
											OFFSET 2.950005 0.000000 0.000000
											CHANNELS 3 Xrotation Yrotation Zrotation
											JOINT leftHandRing4
											{
												OFFSET 2.644302 0.000000 0.000000
												CHANNELS 3 Xrotation Yrotation Zrotation
												End Site
												{
													OFFSET 2.644302 0.000000 0.000083
												}
											}
										}
									}
								}
								JOINT leftLittleProximal
								{
									OFFSET 8.077805 -0.486893 -3.806302
									CHANNELS 6 Xposition Yposition Zposition Xrotation Yrotation Zrotation
									JOINT leftLittleIntermediate
									{
										OFFSET 3.600006 0.000000 0.000000
										CHANNELS 3 Xrotation Yrotation Zrotation
										JOINT leftLittleDistal
										{
											OFFSET 2.099998 0.000000 0.000000
											CHANNELS 3 Xrotation Yrotation Zrotation
											JOINT leftHandPinky4
											{
												OFFSET 2.125496 0.000000 0.000000
												CHANNELS 3 Xrotation Yrotation Zrotation
												End Site
												{
													OFFSET 2.125504 0.000000 -0.001254
												}
											}
										}
									}
								}
							}
						}
					}
				}
			}
		}
	}
	JOINT rightUpperLeg
	{
		OFFSET -8.207800 -6.751701 -1.599544
		CHANNELS 6 Xposition Yposition Zposition Xrotation Yrotation Zrotation
		JOINT rightLowerLeg
		{
			OFFSET 0.000004 -44.370152 0.345934
			CHANNELS 3 Xrotation Yrotation Zrotation
			JOINT rightFoot
			{
				OFFSET 0.000004 -44.423664 -3.043535
				CHANNELS 3 Xrotation Yrotation Zrotation
				JOINT rightToes
				{
					OFFSET 0.000001 -8.728691 10.710592
					CHANNELS 3 Xrotation Yrotation Zrotation
					JOINT rightToesEnd
					{
						OFFSET 0.000000 -0.000665 9.278101
						CHANNELS 3 Xrotation Yrotation Zrotation
						End Site
						{
							OFFSET 0.000000 -0.000665 9.278103
						}
					}
				}
			}
		}
	}
	JOINT leftUpperLeg
	{
		OFFSET 8.207800 -6.751701 -1.599544
		CHANNELS 6 Xposition Yposition Zposition Xrotation Yrotation Zrotation
		JOINT leftLowerLeg
		{
			OFFSET 0.000004 -44.370037 0.346940
			CHANNELS 3 Xrotation Yrotation Zrotation
			JOINT leftFoot
			{
				OFFSET 0.000004 -44.423611 -3.044388
				CHANNELS 3 Xrotation Yrotation Zrotation
				JOINT leftToes
				{
					OFFSET 0.000001 -8.728690 10.710592
					CHANNELS 3 Xrotation Yrotation Zrotation
					JOINT leftToesEnd
					{
						OFFSET 0.000000 -0.000680 9.278101
						CHANNELS 3 Xrotation Yrotation Zrotation
						End Site
						{
							OFFSET 0.000000 -0.000680 9.278101
						}
					}
				}
			}
		}
	}
}
MOTION
Frames: 4
Frame Time: 0.033333
-1.618420 100.572159 0.894570 11.577516 -65.786326 10.003998 0.000000 10.181551 0.131525 5.891046 7.379625 -0.294866 4.207037 4.750649 -0.407737 4.180452 4.776989 -0.387804 0.000002 16.740366 -2.049012 4.751503 5.600986 1.899799 -0.000003 9.617838 1.684981 -4.997785 35.156128 -7.368575 -0.000003 22.037384 7.501075 0.000000 0.000001 0.000001 -4.570000 11.014865 -2.160832 -2.707391 6.648522 9.770635 0.059552 31.373108 55.948986 0.000002 12.602172 0.000021 5.346808 -4.578973 -20.860106 -2.464796 -1.573968 2.681907 -0.184853 0.811011 0.379091 14.555152 -10.338193 -17.751411 -2.646270 -1.527810 1.527817 3.082440 6.845672 -24.355254 -1.994599 -1.151591 1.151573 0.000002 -0.000001 0.000003 -9.108285 -0.517865 2.259802 -1.953993 1.211408 24.349874 0.102789 -0.974067 12.047025 0.106942 -0.993358 12.289314 -0.000001 0.000000 -0.000001 -9.532495 0.000013 -0.000001 -0.068668 -3.360488 30.624526 0.243107 -1.486462 18.575067 0.087627 -0.900172 11.120832 0.000000 0.000000 0.000000 -9.103576 -0.043108 -1.865104 2.118672 -6.841621 32.929189 0.379645 -1.843446 23.271899 0.273421 -1.573778 19.710427 -0.000001 -0.000001 0.000002 -8.076693 -0.486707 -3.806297 0.991096 -5.107814 35.939882 0.407283 -1.906396 24.116698 0.180031 -1.283654 15.966114 0.000000 -0.000000 0.000002 4.570400 11.014660 -2.160807 1.287952 2.046098 -7.556859 -1.901027 -19.818065 -67.839638 -0.000001 -29.221438 0.000001 5.898207 -13.966586 6.155449 2.466092 -1.576203 2.681701 34.633120 -11.154948 20.382241 10.317226 22.375519 -4.922749 2.647889 -1.528780 1.528744 -16.283847 5.393252 11.804519 1.998924 -1.154091 1.154079 -0.000006 -0.000003 0.000003 9.109298 -0.517997 2.259901 -2.909575 -5.343384 -19.893650 0.730449 2.834859 -28.894702 0.303367 1.862593 -18.501751 -0.000002 0.000001 0.000001 9.533419 0.000008 -0.000002 -0.724664 3.070718 -34.949863 0.579101 2.541653 -25.668133 0.407572 2.148875 -21.478331 0.000001 -0.000001 0.000000 9.104499 -0.043006 -1.865101 0.244378 4.333218 -32.106380 0.880801 3.091298 -31.802539 0.978993 3.244079 -33.579560 -0.000002 0.000001 -0.000001 8.077819 -0.486893 -3.806301 0.557549 4.785948 -28.297477 0.460908 2.279636 -22.858481 0.526838 2.430067 -24.463646 -0.000000 0.000000 -0.000001 -8.207800 -6.751704 -1.599538 -16.127368 -7.565088 3.227803 26.370250 2.238409 0.317219 -14.749399 0.586921 -4.965504 -8.080948 -0.000021 0.000000 0.000000 -0.000000 0.000000 8.207799 -6.751699 -1.599545 -34.281706 -0.963998 2.942279 55.851850 -3.279504 0.048539 -2.900343 0.145754 -4.018882 -7.573398 -0.000004 -0.000009 0.000000 0.000002 -0.000002 
-7.260331 100.700066 1.147105 13.747605 -67.610533 12.881724 -0.000000 10.181535 0.131522 5.807265 8.768931 -1.338931 4.080691 5.109809 -0.890843 4.040423 5.146040 -0.876892 -0.000000 16.740362 -2.049020 4.789011 5.597026 1.830999 0.000001 9.617834 1.684975 -5.011829 35.048153 -7.028477 0.000000 22.037384 7.501066 0.000001 0.000001 0.000001 -4.570002 11.014887 -2.160844 -3.388769 7.077416 9.605764 -1.064266 32.099724 54.957946 0.000001 15.143393 0.000013 3.639241 -3.296482 -21.827135 -2.464782 -1.574001 2.681911 -0.184853 0.811009 0.379091 13.116592 -10.255252 -18.306866 -2.646264 -1.527815 1.527818 3.037112 5.644896 -24.083730 -1.994594 -1.151590 1.151580 -0.000002 -0.000005 0.000001 -9.108301 -0.517886 2.259803 -2.065979 1.740163 23.278729 0.102379 -0.972149 12.022894 0.106518 -0.991432 12.265118 -0.000000 0.000000 0.000001 -9.532502 0.000013 0.000001 -0.256946 -2.998179 29.950205 0.242038 -1.483332 18.534430 0.087002 -0.896925 11.080143 0.000000 -0.000000 0.000000 -9.103589 -0.043105 -1.865100 2.017941 -6.743503 32.167438 0.381145 -1.846912 23.318240 0.274722 -1.577399 19.757774 -0.000001 0.000000 -0.000001 -8.076682 -0.486729 -3.806297 0.805581 -4.833996 35.515515 0.409049 -1.910348 24.169890 0.181304 -1.288078 16.022644 -0.000000 0.000000 0.000001 4.570399 11.014671 -2.160819 1.631119 3.428002 -7.487754 0.606343 -18.993588 -66.557905 0.000013 -26.115706 0.000013 5.148510 -9.935216 4.984582 2.466093 -1.576211 2.681699 34.633120 -11.154954 20.382242 11.098695 22.482189 -5.387527 2.647875 -1.528732 1.528745 -16.294115 5.346909 11.806677 1.998928 -1.154089 1.154073 -0.000003 0.000000 0.000005 9.109281 -0.518016 2.259904 -3.002395 -5.154592 -20.773008 0.730400 2.834723 -28.893367 0.303335 1.862464 -18.500385 0.000002 -0.000003 0.000004 9.533400 0.000008 0.000002 -0.708890 3.123074 -35.254076 0.582420 2.548553 -25.743072 0.410406 2.156084 -21.554040 0.000000 0.000000 -0.000001 9.104498 -0.042997 -1.865094 0.192796 4.269437 -32.495520 0.879580 3.089324 -31.780085 0.977710 3.242129 -33.556706 0.000001 0.000001 -0.000001 8.077806 -0.486898 -3.806295 0.434916 4.560071 -28.356895 0.461136 2.280247 -22.864594 0.527022 2.430439 -24.467539 -0.000000 0.000001 0.000005 -8.207799 -6.751729 -1.599543 -11.565418 -7.312681 3.719758 23.277978 3.648939 0.429046 -16.507066 1.347429 -6.130328 -7.606042 -0.000010 -0.000001 0.000000 0.000003 0.000000 8.207799 -6.751708 -1.599551 -36.342487 1.068962 0.098079 43.321902 -1.212535 0.121965 -4.265442 0.299542 -5.123472 -6.985073 0.000005 -0.000001 0.000000 0.000000 -0.000001 
-13.046754 99.807983 1.409922 16.995237 -70.544735 15.785040 -0.000000 10.181550 0.131524 5.540132 11.321087 -1.433570 3.806497 5.613236 -0.905736 3.749180 5.653850 -0.911365 0.000002 16.740366 -2.049026 4.672567 5.621337 1.569198 -0.000006 9.617834 1.684975 -4.862582 35.211743 -7.602392 0.000001 22.037369 7.501071 0.000000 0.000000 0.000001 -4.569998 11.014854 -2.160841 -3.858789 7.755777 9.535025 -0.169942 33.888188 52.539516 0.000000 17.712099 0.000030 1.883316 -2.674842 -22.898716 -2.464794 -1.574019 2.681909 -0.184853 0.811011 0.379093 11.332586 -9.519697 -18.605999 -2.646267 -1.527798 1.527818 3.021796 5.032179 -23.965223 -1.994594 -1.151586 1.151582 0.000001 -0.000003 0.000001 -9.108306 -0.517875 2.259803 -2.101477 1.937723 22.902125 0.102210 -0.971360 12.013031 0.106361 -0.990685 12.255726 -0.000000 -0.000002 -0.000000 -9.532499 0.000012 -0.000001 -0.359073 -2.787268 29.515880 0.241579 -1.481965 18.516745 0.086725 -0.895505 11.062379 0.000000 0.000000 0.000001 -9.103602 -0.043106 -1.865100 1.918486 -6.626658 31.598818 0.380896 -1.846354 23.310759 0.274536 -1.576882 19.750993 -0.000000 0.000000 -0.000003 -8.076699 -0.486727 -3.806296 0.513462 -4.418505 35.258891 0.406917 -1.905590 24.105787 0.179839 -1.282997 15.957736 -0.000000 0.000000 -0.000002 4.570402 11.014677 -2.160821 1.890777 4.678497 -7.546968 3.852854 -17.147578 -65.754129 0.000013 -24.794972 0.000013 5.721483 -5.669336 3.908894 2.466089 -1.576215 2.681691 34.633120 -11.154948 20.382239 12.096711 22.138142 -6.035564 2.647861 -1.528759 1.528746 -16.315457 5.250299 11.811209 1.998917 -1.154090 1.154075 0.000000 -0.000001 -0.000000 9.109303 -0.518011 2.259899 -3.246089 -5.006328 -22.284585 0.728336 2.830996 -28.851668 0.301963 1.858378 -18.458311 0.000002 0.000000 -0.000001 9.533409 0.000010 -0.000002 -0.691390 3.208738 -35.890124 0.584892 2.553670 -25.798543 0.412518 2.161408 -21.610088 0.000000 0.000001 0.000001 9.104496 -0.043000 -1.865102 0.109719 4.165680 -32.977369 0.876301 3.084040 -31.719105 0.974209 3.236864 -33.494824 -0.000000 -0.000002 -0.000000 8.077806 -0.486902 -3.806303 0.196529 4.141773 -28.803198 0.461998 2.282289 -22.886301 0.528170 2.432945 -24.494537 0.000001 0.000001 0.000004 -8.207801 -6.751704 -1.599543 -7.392314 -7.905598 4.577732 22.068616 5.973917 0.482558 -19.188404 3.768986 -7.894806 -7.508042 0.000008 0.000005 0.000000 0.000001 0.000000 8.207799 -6.751692 -1.599541 -36.407313 1.266601 -0.484765 27.787887 -0.184322 0.019473 -4.230256 0.334165 -6.153001 -7.080986 0.000010 0.000008 -0.000001 0.000001 0.000000 
-18.833172 98.915901 1.672738 21.304951 -73.404992 19.753418 0.000000 10.181552 0.131523 5.274665 13.873650 -1.516903 3.532190 6.116723 -0.918217 3.457977 6.161823 -0.943272 0.000002 16.740347 -2.049018 4.556230 5.646184 1.307434 0.000000 9.617848 1.684978 -4.711034 35.374086 -8.177983 0.000002 22.037369 7.501070 -0.000000 0.000000 -0.000000 -4.569995 11.014857 -2.160840 -4.328760 8.434688 9.469792 0.835804 35.642796 50.034605 -0.000003 20.280807 0.000046 0.140130 -2.020821 -23.950275 -2.464789 -1.574019 2.681910 -0.184853 0.811009 0.379092 9.556192 -8.775334 -18.881197 -2.646256 -1.527806 1.527818 3.007759 4.419435 -23.846981 -1.994609 -1.151600 1.151570 0.000003 0.000000 0.000001 -9.108290 -0.517888 2.259804 -2.135680 2.135513 22.525581 0.102041 -0.970565 12.003158 0.106204 -0.989935 12.246337 -0.000000 0.000003 -0.000000 -9.532505 -0.000010 0.000001 -0.459579 -2.575589 29.082000 0.241122 -1.480598 18.499055 0.086448 -0.894084 11.044612 0.000001 0.000002 -0.000001 -9.103597 -0.043133 -1.865103 1.820225 -6.508839 31.030526 0.380648 -1.845795 23.303268 0.274350 -1.576366 19.744214 0.000000 0.000001 0.000000 -8.076693 -0.486742 -3.806297 0.223368 -4.001720 35.004518 0.404792 -1.900832 24.041682 0.178380 -1.277915 15.892843 0.000000 -0.000000 0.000000 4.570401 11.014646 -2.160813 2.152257 5.928717 -7.612002 7.041646 -15.261588 -65.067558 0.000019 -23.474238 0.000015 6.371751 -1.415070 2.795573 2.466093 -1.576219 2.681686 34.633123 -11.154951 20.382241 13.088013 21.783732 -6.675461 2.647874 -1.528737 1.528741 -16.336786 5.153687 11.815694 1.998921 -1.154087 1.154077 0.000002 0.000001 0.000001 9.109299 -0.518002 2.259901 -3.485721 -4.851717 -23.795165 0.726273 2.827265 -28.809963 0.300595 1.854293 -18.416236 -0.000001 -0.000000 0.000003 9.533399 0.000013 0.000001 -0.672932 3.294202 -36.526257 0.587366 2.558788 -25.854026 0.414636 2.166733 -21.666139 -0.000001 -0.000000 -0.000001 9.104495 -0.042998 -1.865100 0.025783 4.062623 -33.459314 0.873035 3.078751 -31.658139 0.970718 3.231592 -33.432936 -0.000001 -0.000002 0.000000 8.077805 -0.486889 -3.806301 -0.044994 3.725343 -29.251023 0.462862 2.284329 -22.908009 0.529315 2.435451 -24.521542 -0.000001 0.000000 -0.000001 -8.207798 -6.751694 -1.599542 -3.204834 -8.434943 5.478246 20.850894 8.297240 0.585907 -21.803666 6.269394 -9.550113 -7.410035 0.000024 0.000009 0.000000 0.000001 -0.000000 8.207799 -6.751698 -1.599543 -36.470130 1.464893 -1.067432 12.254123 0.833777 0.196096 -4.194456 0.368150 -7.182550 -7.176895 0.000009 0.000018 -0.000001 0.000000 0.000001 
